<svg width="430" height="430" viewBox="0 0 430 430" fill="none" xmlns="http://www.w3.org/2000/svg">
<path d="M229.5 330L229.5 355C229.5 382.614 207.114 405 179.5 405H174.5C149.647 405 129.5 384.853 129.5 360M229.5 330L229.5 190.83V127.628V58.25C229.5 39.8865 244.387 25 262.75 25C263.337 25 263.92 25.0152 264.5 25.0453C266.142 25.1304 267.753 25.3347 269.324 25.6497M229.5 330H202.357C186.338 330 171.527 324.83 159.5 316.068L158.5 315.326" stroke="#121331" stroke-width="7" stroke-linecap="round" stroke-linejoin="round"/>
<path d="M299.5 250V260C299.5 298.66 268.16 330 229.5 330C267 328.5 278 293.027 278 270.5C278 233.5 256.5 217.5 229.5 220.83C203.513 224.034 182.973 239.432 179.5 265.5V250C179.5 220.27 201.123 195.59 229.5 190.83C232.752 190.284 236.093 190 239.5 190C272.637 190 299.5 216.863 299.5 250Z" fill="#3A3347"/>
<g style="mix-blend-mode:multiply" opacity="0.5">
<path d="M181.087 236.234C190.939 217.462 210.656 206.058 234.79 203.09C251.005 201.096 265.049 204.927 275.038 214.272C285.046 223.636 291.645 239.158 291.645 261.857C291.645 275.59 288.261 293.155 279.332 307.369C278.185 309.194 276.947 310.965 275.612 312.667C263.296 323.459 247.162 330 229.5 330C267 328.5 278 293.027 278 270.5C278 233.5 256.5 217.5 229.5 220.83C203.513 224.034 182.973 239.432 179.5 265.5V250C179.5 245.263 180.049 240.655 181.087 236.234Z" fill="#3A3347"/>
</g>
<path d="M296 61.0761V58.2499C296 39.5 279.5 24.5 266 25.4999C277.965 31.9999 276.491 54.5273 268 68.4999C259.509 82.4725 216.949 109.139 216.949 109.139L155.515 153.601C128.287 173.306 112.164 204.876 112.164 238.487C112.164 264.5 127.64 297.285 158.5 315.326C140.885 302.027 129.5 280.915 129.5 257.143V251.069C129.5 218.993 144.887 188.864 170.871 170.059L229.5 127.628L281.075 90.3016C290.449 83.5172 296 72.6478 296 61.0761Z" fill="#3A3347"/>
<g style="mix-blend-mode:multiply" opacity="0.5">
<path d="M291.406 41.5174C291.53 42.627 291.598 43.7913 291.607 45.0058C291.67 52.8179 289.265 61.6001 285.214 68.2494C283.333 71.337 279.311 75.4574 273.955 80.0596C268.688 84.5844 262.437 89.3215 256.41 93.6448C250.391 97.9621 244.638 101.836 240.388 104.632C238.264 106.029 236.518 107.155 235.305 107.93C234.698 108.318 234.225 108.618 233.905 108.821C233.745 108.922 233.623 108.999 233.541 109.05L233.423 109.124L233.421 109.125C233.353 109.168 233.286 109.213 233.22 109.26L169.48 155.28C140.287 176.357 123 210.126 123 246.076C123 265.906 131.278 289.193 147.749 307.991C124.046 289.273 112.164 261.28 112.164 238.487C112.164 204.876 128.287 173.306 155.515 153.601L216.949 109.139C216.949 109.139 259.509 82.4725 268 68.4999C276.491 54.5273 277.965 31.9999 266 25.4999C275.094 24.8263 285.55 31.4138 291.406 41.5174Z" fill="#3A3347"/>
</g>
<path d="M153 384C165.979 384 176.5 373.479 176.5 360.5C176.5 347.521 165.979 337 153 337C140.021 337 129.5 347.521 129.5 360.5C129.5 373.479 140.021 384 153 384Z" fill="#3A3347"/>
<g style="mix-blend-mode:multiply" opacity="0.5">
<path d="M153.5 337.005C148.02 341.307 144.5 347.993 144.5 355.5C144.5 368.312 154.752 378.729 167.5 378.995C163.506 382.13 158.471 384 153 384C140.021 384 129.5 373.479 129.5 360.5C129.5 347.521 140.021 337 153 337C153.167 337 153.334 337.002 153.5 337.005Z" fill="#3A3347"/>
</g>
<path d="M153 384C165.979 384 176.5 373.479 176.5 360.5C176.5 347.521 165.979 337 153 337C140.021 337 129.5 347.521 129.5 360.5C129.5 373.479 140.021 384 153 384Z" stroke="#121331" stroke-width="7" stroke-miterlimit="10" stroke-linecap="round" stroke-linejoin="round"/>
<path d="M299.5 250V260C299.5 298.66 268.16 330 229.5 330C267 328.5 278 293.027 278 270.5C278 233.5 256.5 217.5 229.5 220.83C203.513 224.034 182.973 239.432 179.5 265.5V250C179.5 220.27 201.123 195.59 229.5 190.83C232.752 190.284 236.093 190 239.5 190C272.637 190 299.5 216.863 299.5 250Z" stroke="#121331" stroke-width="7" stroke-linecap="round" stroke-linejoin="round"/>
<path d="M158.5 315.326C127.64 297.285 112.164 264.5 112.164 238.487C112.164 204.876 128.287 173.306 155.515 153.601L216.949 109.139C216.949 109.139 259.509 82.4725 268 68.4999C276.491 54.5273 277.965 31.9999 266 25.4999C279.5 24.5 296 39.5 296 58.2499V61.0761C296 72.6478 290.449 83.5172 281.075 90.3016L229.5 127.628L170.871 170.059C144.887 188.864 129.5 218.993 129.5 251.069V257.143C129.5 281.362 141.317 302.82 159.5 316.068" stroke="#121331" stroke-width="7" stroke-linecap="round" stroke-linejoin="round"/>
</svg>
